<mxfile host="65bd71144e">
    <diagram id="amqrW1gJ4K7w5JCBkm9t" name="Page-1">
        <mxGraphModel dx="1385" dy="906" grid="1" gridSize="10" guides="1" tooltips="1" connect="1" arrows="1" fold="1" page="1" pageScale="1" pageWidth="827" pageHeight="1169" math="0" shadow="0">
            <root>
                <mxCell id="0"/>
                <mxCell id="1" parent="0"/>
                <mxCell id="Ei8CF15KurNhttZyVuuA-44" value="" style="rounded=0;whiteSpace=wrap;html=1;" parent="1" vertex="1">
                    <mxGeometry x="40" width="960" height="520" as="geometry"/>
                </mxCell>
                <mxCell id="Ei8CF15KurNhttZyVuuA-7" style="edgeStyle=orthogonalEdgeStyle;rounded=0;orthogonalLoop=1;jettySize=auto;html=1;exitX=0.5;exitY=1;exitDx=0;exitDy=0;entryX=0.5;entryY=0;entryDx=0;entryDy=0;" parent="1" source="QJUcf3hQXVjyApLe9Yys-1" target="Ei8CF15KurNhttZyVuuA-2" edge="1">
                    <mxGeometry relative="1" as="geometry"/>
                </mxCell>
                <mxCell id="Ei8CF15KurNhttZyVuuA-10" style="edgeStyle=orthogonalEdgeStyle;rounded=0;orthogonalLoop=1;jettySize=auto;html=1;exitX=0.5;exitY=1;exitDx=0;exitDy=0;entryX=0.5;entryY=0;entryDx=0;entryDy=0;" parent="1" source="QJUcf3hQXVjyApLe9Yys-1" target="Ei8CF15KurNhttZyVuuA-8" edge="1">
                    <mxGeometry relative="1" as="geometry"/>
                </mxCell>
                <mxCell id="QJUcf3hQXVjyApLe9Yys-1" value="JPass Dashboard&lt;br&gt;(idle) 0" style="html=1;fillColor=#dae8fc;strokeColor=#6c8ebf;" parent="1" vertex="1">
                    <mxGeometry x="360" y="40" width="120" height="40" as="geometry"/>
                </mxCell>
                <mxCell id="Ei8CF15KurNhttZyVuuA-6" style="edgeStyle=orthogonalEdgeStyle;rounded=0;orthogonalLoop=1;jettySize=auto;html=1;exitX=0.5;exitY=1;exitDx=0;exitDy=0;entryX=0.5;entryY=0;entryDx=0;entryDy=0;" parent="1" source="Ei8CF15KurNhttZyVuuA-2" target="Ei8CF15KurNhttZyVuuA-3" edge="1">
                    <mxGeometry relative="1" as="geometry"/>
                </mxCell>
                <mxCell id="Ei8CF15KurNhttZyVuuA-2" value="JPass Dashboard Edit&lt;br&gt;(warning popup)" style="html=1;fillColor=#dae8fc;strokeColor=#6c8ebf;" parent="1" vertex="1">
                    <mxGeometry x="190" y="120" width="120" height="40" as="geometry"/>
                </mxCell>
                <mxCell id="Ei8CF15KurNhttZyVuuA-3" value="JPass Dashboard&lt;br&gt;(idle) 1" style="html=1;fillColor=#dae8fc;strokeColor=#6c8ebf;" parent="1" vertex="1">
                    <mxGeometry x="190" y="200" width="120" height="40" as="geometry"/>
                </mxCell>
                <mxCell id="Ei8CF15KurNhttZyVuuA-14" style="edgeStyle=orthogonalEdgeStyle;rounded=0;orthogonalLoop=1;jettySize=auto;html=1;exitX=0.5;exitY=1;exitDx=0;exitDy=0;entryX=0.5;entryY=0;entryDx=0;entryDy=0;" parent="1" source="Ei8CF15KurNhttZyVuuA-8" target="Ei8CF15KurNhttZyVuuA-12" edge="1">
                    <mxGeometry relative="1" as="geometry"/>
                </mxCell>
                <mxCell id="Ei8CF15KurNhttZyVuuA-8" value="JPass Dashboard&lt;br&gt;(idle) 2" style="html=1;fillColor=#dae8fc;strokeColor=#6c8ebf;" parent="1" vertex="1">
                    <mxGeometry x="360" y="120" width="120" height="40" as="geometry"/>
                </mxCell>
                <mxCell id="Ei8CF15KurNhttZyVuuA-18" style="edgeStyle=orthogonalEdgeStyle;rounded=0;orthogonalLoop=1;jettySize=auto;html=1;exitX=0.5;exitY=1;exitDx=0;exitDy=0;entryX=0.5;entryY=0;entryDx=0;entryDy=0;" parent="1" source="Ei8CF15KurNhttZyVuuA-12" target="Ei8CF15KurNhttZyVuuA-16" edge="1">
                    <mxGeometry relative="1" as="geometry"/>
                </mxCell>
                <mxCell id="Ei8CF15KurNhttZyVuuA-22" style="edgeStyle=orthogonalEdgeStyle;rounded=0;orthogonalLoop=1;jettySize=auto;html=1;exitX=0.5;exitY=1;exitDx=0;exitDy=0;entryX=0.5;entryY=0;entryDx=0;entryDy=0;" parent="1" source="Ei8CF15KurNhttZyVuuA-12" target="Ei8CF15KurNhttZyVuuA-15" edge="1">
                    <mxGeometry relative="1" as="geometry"/>
                </mxCell>
                <mxCell id="Ei8CF15KurNhttZyVuuA-23" style="edgeStyle=orthogonalEdgeStyle;rounded=0;orthogonalLoop=1;jettySize=auto;html=1;exitX=0.5;exitY=1;exitDx=0;exitDy=0;entryX=0.5;entryY=0;entryDx=0;entryDy=0;" parent="1" source="Ei8CF15KurNhttZyVuuA-12" target="Ei8CF15KurNhttZyVuuA-19" edge="1">
                    <mxGeometry relative="1" as="geometry"/>
                </mxCell>
                <mxCell id="Ei8CF15KurNhttZyVuuA-24" style="edgeStyle=orthogonalEdgeStyle;rounded=0;orthogonalLoop=1;jettySize=auto;html=1;exitX=0.5;exitY=1;exitDx=0;exitDy=0;entryX=0.5;entryY=0;entryDx=0;entryDy=0;" parent="1" source="Ei8CF15KurNhttZyVuuA-12" target="Ei8CF15KurNhttZyVuuA-21" edge="1">
                    <mxGeometry relative="1" as="geometry"/>
                </mxCell>
                <mxCell id="Ei8CF15KurNhttZyVuuA-26" style="edgeStyle=orthogonalEdgeStyle;rounded=0;orthogonalLoop=1;jettySize=auto;html=1;exitX=0.5;exitY=1;exitDx=0;exitDy=0;entryX=0.5;entryY=0;entryDx=0;entryDy=0;" parent="1" source="Ei8CF15KurNhttZyVuuA-12" target="Ei8CF15KurNhttZyVuuA-25" edge="1">
                    <mxGeometry relative="1" as="geometry"/>
                </mxCell>
                <mxCell id="Ei8CF15KurNhttZyVuuA-28" style="edgeStyle=orthogonalEdgeStyle;rounded=0;orthogonalLoop=1;jettySize=auto;html=1;exitX=0.5;exitY=1;exitDx=0;exitDy=0;entryX=0.5;entryY=0;entryDx=0;entryDy=0;" parent="1" source="Ei8CF15KurNhttZyVuuA-12" target="Ei8CF15KurNhttZyVuuA-27" edge="1">
                    <mxGeometry relative="1" as="geometry"/>
                </mxCell>
                <mxCell id="Ei8CF15KurNhttZyVuuA-12" value="Edit Entry 0" style="html=1;fillColor=#dae8fc;strokeColor=#6c8ebf;" parent="1" vertex="1">
                    <mxGeometry x="360" y="200" width="120" height="40" as="geometry"/>
                </mxCell>
                <mxCell id="Ei8CF15KurNhttZyVuuA-15" value="JPass Dashboard&lt;br&gt;(idle) 3" style="html=1;fillColor=#dae8fc;strokeColor=#6c8ebf;" parent="1" vertex="1">
                    <mxGeometry x="80" y="280" width="120" height="40" as="geometry"/>
                </mxCell>
                <mxCell id="Ei8CF15KurNhttZyVuuA-30" style="edgeStyle=orthogonalEdgeStyle;rounded=0;orthogonalLoop=1;jettySize=auto;html=1;exitX=0.5;exitY=1;exitDx=0;exitDy=0;entryX=0.5;entryY=0;entryDx=0;entryDy=0;" parent="1" source="Ei8CF15KurNhttZyVuuA-16" target="Ei8CF15KurNhttZyVuuA-29" edge="1">
                    <mxGeometry relative="1" as="geometry"/>
                </mxCell>
                <mxCell id="Ei8CF15KurNhttZyVuuA-16" value="JPass Dashboard&lt;br&gt;(saving) 0" style="html=1;fillColor=#dae8fc;strokeColor=#6c8ebf;" parent="1" vertex="1">
                    <mxGeometry x="210" y="280" width="120" height="40" as="geometry"/>
                </mxCell>
                <mxCell id="Ei8CF15KurNhttZyVuuA-32" style="edgeStyle=orthogonalEdgeStyle;rounded=0;orthogonalLoop=1;jettySize=auto;html=1;exitX=0.5;exitY=1;exitDx=0;exitDy=0;entryX=0.5;entryY=0;entryDx=0;entryDy=0;" parent="1" source="Ei8CF15KurNhttZyVuuA-19" target="Ei8CF15KurNhttZyVuuA-31" edge="1">
                    <mxGeometry relative="1" as="geometry"/>
                </mxCell>
                <mxCell id="Ei8CF15KurNhttZyVuuA-19" value="Edit Entry&lt;br&gt;(warning popup) 0" style="html=1;fillColor=#dae8fc;strokeColor=#6c8ebf;whiteSpace=wrap;" parent="1" vertex="1">
                    <mxGeometry x="340" y="280" width="120" height="40" as="geometry"/>
                </mxCell>
                <mxCell id="Ei8CF15KurNhttZyVuuA-21" value="Edit Entry 1" style="html=1;fillColor=#dae8fc;strokeColor=#6c8ebf;" parent="1" vertex="1">
                    <mxGeometry x="600" y="280" width="120" height="40" as="geometry"/>
                </mxCell>
                <mxCell id="Ei8CF15KurNhttZyVuuA-25" value="Edit Entry 2" style="html=1;fillColor=#dae8fc;strokeColor=#6c8ebf;" parent="1" vertex="1">
                    <mxGeometry x="730" y="280" width="120" height="40" as="geometry"/>
                </mxCell>
                <mxCell id="Ei8CF15KurNhttZyVuuA-35" style="edgeStyle=orthogonalEdgeStyle;rounded=0;orthogonalLoop=1;jettySize=auto;html=1;exitX=0.5;exitY=1;exitDx=0;exitDy=0;entryX=0.5;entryY=0;entryDx=0;entryDy=0;" parent="1" source="Ei8CF15KurNhttZyVuuA-27" target="Ei8CF15KurNhttZyVuuA-33" edge="1">
                    <mxGeometry relative="1" as="geometry"/>
                </mxCell>
                <mxCell id="Ei8CF15KurNhttZyVuuA-36" style="edgeStyle=orthogonalEdgeStyle;rounded=0;orthogonalLoop=1;jettySize=auto;html=1;exitX=0.5;exitY=1;exitDx=0;exitDy=0;entryX=0.5;entryY=0;entryDx=0;entryDy=0;" parent="1" source="Ei8CF15KurNhttZyVuuA-27" target="Ei8CF15KurNhttZyVuuA-34" edge="1">
                    <mxGeometry relative="1" as="geometry"/>
                </mxCell>
                <mxCell id="Ei8CF15KurNhttZyVuuA-40" style="edgeStyle=orthogonalEdgeStyle;rounded=0;orthogonalLoop=1;jettySize=auto;html=1;exitX=0.5;exitY=1;exitDx=0;exitDy=0;entryX=0.5;entryY=0;entryDx=0;entryDy=0;" parent="1" source="Ei8CF15KurNhttZyVuuA-27" target="Ei8CF15KurNhttZyVuuA-39" edge="1">
                    <mxGeometry relative="1" as="geometry"/>
                </mxCell>
                <mxCell id="Ei8CF15KurNhttZyVuuA-42" style="edgeStyle=orthogonalEdgeStyle;rounded=0;orthogonalLoop=1;jettySize=auto;html=1;exitX=0.5;exitY=1;exitDx=0;exitDy=0;entryX=0.5;entryY=0;entryDx=0;entryDy=0;" parent="1" source="Ei8CF15KurNhttZyVuuA-27" target="Ei8CF15KurNhttZyVuuA-41" edge="1">
                    <mxGeometry relative="1" as="geometry"/>
                </mxCell>
                <mxCell id="Ei8CF15KurNhttZyVuuA-27" value="Generate Password 0" style="html=1;fillColor=#dae8fc;strokeColor=#6c8ebf;" parent="1" vertex="1">
                    <mxGeometry x="470" y="280" width="120" height="40" as="geometry"/>
                </mxCell>
                <mxCell id="Ei8CF15KurNhttZyVuuA-29" value="JPass Dashboard&lt;br&gt;(idle) 4" style="html=1;fillColor=#dae8fc;strokeColor=#6c8ebf;" parent="1" vertex="1">
                    <mxGeometry x="210" y="360" width="120" height="40" as="geometry"/>
                </mxCell>
                <mxCell id="Ei8CF15KurNhttZyVuuA-31" value="Edit Entry 3" style="html=1;fillColor=#dae8fc;strokeColor=#6c8ebf;" parent="1" vertex="1">
                    <mxGeometry x="340" y="360" width="120" height="40" as="geometry"/>
                </mxCell>
                <mxCell id="Ei8CF15KurNhttZyVuuA-33" value="Generate Password 1" style="html=1;fillColor=#dae8fc;strokeColor=#6c8ebf;" parent="1" vertex="1">
                    <mxGeometry x="470" y="360" width="120" height="40" as="geometry"/>
                </mxCell>
                <mxCell id="Ei8CF15KurNhttZyVuuA-38" style="edgeStyle=orthogonalEdgeStyle;rounded=0;orthogonalLoop=1;jettySize=auto;html=1;exitX=0.5;exitY=1;exitDx=0;exitDy=0;entryX=0.5;entryY=0;entryDx=0;entryDy=0;" parent="1" source="Ei8CF15KurNhttZyVuuA-34" target="Ei8CF15KurNhttZyVuuA-37" edge="1">
                    <mxGeometry relative="1" as="geometry"/>
                </mxCell>
                <mxCell id="Ei8CF15KurNhttZyVuuA-34" value="Generate Password&lt;br&gt;(warning popup) 0" style="html=1;fillColor=#dae8fc;strokeColor=#6c8ebf;" parent="1" vertex="1">
                    <mxGeometry x="600" y="360" width="120" height="40" as="geometry"/>
                </mxCell>
                <mxCell id="Ei8CF15KurNhttZyVuuA-37" value="Generate Password 2" style="html=1;fillColor=#dae8fc;strokeColor=#6c8ebf;" parent="1" vertex="1">
                    <mxGeometry x="600" y="440" width="120" height="40" as="geometry"/>
                </mxCell>
                <mxCell id="Ei8CF15KurNhttZyVuuA-39" value="Edit Entry 4" style="html=1;fillColor=#dae8fc;strokeColor=#6c8ebf;" parent="1" vertex="1">
                    <mxGeometry x="730" y="360" width="120" height="40" as="geometry"/>
                </mxCell>
                <mxCell id="Ei8CF15KurNhttZyVuuA-41" value="Edit Entry 5" style="html=1;fillColor=#dae8fc;strokeColor=#6c8ebf;" parent="1" vertex="1">
                    <mxGeometry x="860" y="360" width="120" height="40" as="geometry"/>
                </mxCell>
            </root>
        </mxGraphModel>
    </diagram>
</mxfile>